<?xml version="1.0" encoding="UTF-8" standalone="no" ?>
<!DOCTYPE svg PUBLIC "-//W3C//DTD SVG 1.1//EN" "http://www.w3.org/Graphics/SVG/1.1/DTD/svg11.dtd">
<svg xmlns="http://www.w3.org/2000/svg" xmlns:xlink="http://www.w3.org/1999/xlink" version="1.1" width="1280" height="1024" viewBox="0 0 1280 1024" xml:space="preserve">
<desc>Created with Fabric.js 5.3.0</desc>
<defs>
</defs>
<g transform="matrix(1 0 0 1 640 512)" id="background-logo"  >
<rect style="stroke: none; stroke-width: 0; stroke-dasharray: none; stroke-linecap: butt; stroke-dashoffset: 0; stroke-linejoin: miter; stroke-miterlimit: 4; fill: rgb(10,15,30); fill-rule: nonzero; opacity: 1;"  paint-order="stroke"  x="-640" y="-512" rx="0" ry="0" width="1280" height="1024" />
</g>
<g transform="matrix(3.929456901372327 0 0 3.929456901372327 639.1161851756531 511.29294814052247)" id="logo-logo"  >
<g style=""  paint-order="stroke"   >
		<g transform="matrix(1.0633522530934538 0 0 1.0633522530934538 0 0)"  >
<g style=""  paint-order="stroke"   >
		<g transform="matrix(1 0 0 1 0 0)"  >
<path style="stroke: none; stroke-width: 1; stroke-dasharray: none; stroke-linecap: butt; stroke-dashoffset: 0; stroke-linejoin: miter; stroke-miterlimit: 4; fill: rgb(59,130,246); fill-rule: nonzero; opacity: 1;"  paint-order="stroke"  transform=" translate(-100, -100)" d="M 100 0 C 44.8 0 0 44.8 0 100 C 0 155.2 44.8 200 100 200 C 155.2 200 200 155.2 200 100 C 200 44.80000000000001 155.2 0 100 0 z M 100 190 C 50.4 190 10 149.6 10 100 C 10 50.400000000000006 50.4 10 100 10 C 149.6 10 190 50.4 190 100 C 190 149.6 149.6 190 100 190 z" stroke-linecap="round" />
</g>
</g>
</g>
</g>
</g>
<g transform="matrix(1.9211538461538462 0 0 1.9211538461538462 639.5470039256533 688.5992022755311)" id="tagline-206eda6f-b020-497c-ac50-dd45961185f2-logo"  >
<g style=""  paint-order="stroke"   >
		<g transform="matrix(1 0 0 1 0 0)" id="tagline-206eda6f-b020-497c-ac50-dd45961185f2-logo-path-0"  >
<path style="stroke: none; stroke-width: 0; stroke-dasharray: none; stroke-linecap: butt; stroke-dashoffset: 0; stroke-linejoin: miter; stroke-miterlimit: 4; fill: rgb(74,222,128); fill-rule: nonzero; opacity: 1;"  paint-order="stroke"  transform=" translate(-125.365, 13.65)" d="M 18.17 -21.45 L 1.83 -5.85 L 1.83 0 L 27.14 0 L 27.14 -5.85 L 10.41 -5.85 L 26.36 -21.45 L 26.36 -27.3 L 3 -27.3 L 3 -21.45 Z M 33.07 -27.3 L 33.07 0 L 53.27 0 L 53.27 -5.85 L 39.31 -5.85 L 39.31 -10.72 L 50.54 -10.72 L 50.54 -16.18 L 39.31 -16.18 L 39.31 -21.45 L 53.27 -21.45 L 53.27 -27.3 Z M 58.07 0 L 64.31 0 L 64.31 -5.97 L 69.61 -5.97 L 73.28 0 L 80.69 0 L 75.62 -7.72 C 78.39 -9.55 80.22 -12.75 80.22 -16.69 C 80.22 -22.7 75.86 -27.3 69.61 -27.3 L 58.07 -27.3 Z M 64.31 -11.82 L 64.31 -21.45 L 68.76 -21.45 C 71.53 -21.45 73.59 -19.5 73.59 -16.65 C 73.59 -13.85 71.68 -11.82 68.76 -11.82 Z M 96.99 0.62 C 105.22 0.62 111.23 -5.03 111.23 -13.61 C 111.23 -21.92 105.61 -27.92 96.99 -27.92 C 88.76 -27.92 82.76 -22.23 82.76 -13.61 C 82.76 -5.38 88.41 0.62 96.99 0.62 Z M 96.99 -5.54 C 92.55 -5.54 89.27 -9.01 89.27 -13.61 C 89.27 -18.14 92.31 -21.76 96.99 -21.76 C 101.44 -21.76 104.71 -18.25 104.71 -13.61 C 104.71 -9.16 101.63 -5.54 96.99 -5.54 Z M 146.6 -27.3 L 122.46 -27.3 L 122.46 -21.45 L 131.39 -21.45 L 131.39 0 L 137.63 0 L 137.63 -21.45 L 146.6 -21.45 Z M 161.93 0.62 C 170.16 0.62 176.16 -5.03 176.16 -13.61 C 176.16 -21.92 170.55 -27.92 161.93 -27.92 C 153.7 -27.92 147.69 -22.23 147.69 -13.61 C 147.69 -5.38 153.35 0.62 161.93 0.62 Z M 161.93 -5.54 C 157.48 -5.54 154.21 -9.01 154.21 -13.61 C 154.21 -18.14 157.25 -21.76 161.93 -21.76 C 166.37 -21.76 169.65 -18.25 169.65 -13.61 C 169.65 -9.16 166.57 -5.54 161.93 -5.54 Z M 188.96 -27.3 L 188.96 0 L 195.2 0 L 195.2 -9.55 L 206.43 -9.55 L 206.43 -15.02 L 195.2 -15.02 L 195.2 -21.45 L 209.16 -21.45 L 209.16 -27.3 Z M 214.15 -27.3 L 214.15 0 L 220.39 0 L 220.39 -27.3 Z M 248.9 -27.3 L 224.76 -27.3 L 224.76 -21.45 L 233.69 -21.45 L 233.69 0 L 239.93 0 L 239.93 -21.45 L 248.9 -21.45 Z" stroke-linecap="round" />
</g>
</g>
</g>
<g transform="matrix(1.9211538461538462 0 0 1.9211538461538462 605.7056986589051 444.44440869900916)" id="shape-8f69401f-647a-4a68-b5f7-e8db25f64767"  >
<g style=""  paint-order="stroke"   >
		<g transform="matrix(1 0 0 1 -5.998994999999979 0)" id="path-02_00000093880849186241861420000002573736075585511303_"  >
<path style="stroke: none; stroke-width: 1; stroke-dasharray: none; stroke-linecap: butt; stroke-dashoffset: 0; stroke-linejoin: miter; stroke-miterlimit: 4; fill: rgb(59,130,246); fill-rule: nonzero; opacity: 1;"  paint-order="stroke"  transform=" translate(-119.00100500000002, -85.674975)" d="M 206.75262 22.25568 L 198.10411000000002 35.28562 C 181.67476000000002 24.250640000000004 161.9035 17.80692 140.62474000000003 17.80692 C 83.61487000000002 17.80692 37.399290000000036 64.02257 37.399290000000036 121.03222000000001 C 37.399290000000036 139.30714 42.167640000000034 156.46018 50.49867000000003 171.34995 C 38.36133000000003 153.73296 31.249390000000034 132.38625000000002 31.249390000000034 109.37534000000001 C 31.2494 48.96899 80.21838 0 140.62474 0 C 165.47566 0 188.38641 8.29335 206.75262 22.25568 z M 140.62468 107.34007 C 133.06268 107.34007 126.93247000000001 113.47028 126.93247000000001 121.03228 C 126.93247000000001 128.59429 133.06269 134.72449 140.62468 134.72449 C 148.18669 134.72449 154.31691 128.59429 154.31691 121.03228 C 154.31691 113.47028 148.18669 107.34007 140.62468 107.34007 z" stroke-linecap="round" />
</g>
		<g transform="matrix(1 0 0 1 0 9.421839999999989)" id="path-01_00000077300609541143786470000013822412113288502416_"  >
<path style="stroke: none; stroke-width: 1; stroke-dasharray: none; stroke-linecap: butt; stroke-dashoffset: 0; stroke-linejoin: miter; stroke-miterlimit: 4; fill: rgb(74,222,128); fill-rule: nonzero; opacity: 1;"  paint-order="stroke"  transform=" translate(-125, -95.09681499999999)" d="M 230.75072 171.34995 C 239.08176 156.46018 243.8501 139.30713 243.8501 121.03222000000001 C 243.8501 85.30127000000002 225.69208 53.81549000000001 198.10411 35.28563000000001 L 198.10411 25.604500000000012 L 206.75261999999998 22.255690000000012 C 233.03014 42.23248 250 73.81991 250 109.37534 C 250 132.38625 242.88799 153.73296 230.75072 171.34995 z M 138.95239 113.50169 L 6.05943 23.14597 L 0.13232999999999961 18.84368 L 3.0297199999999997 21.08598 L 0 19.02597 L 5.9271 23.32826 L 133.16447 121.80030000000001 C 133.37501 123.95225 134.44007 126.01036 136.32753 127.38039 C 139.82765 129.92102 144.72472 129.14318 147.26543999999998 125.64292 C 149.80606999999998 122.14280000000001 149.02823999999998 117.24574 145.52811999999997 114.70511 C 143.55334 113.27169 141.14229 112.92954 138.95239 113.50169 z" stroke-linecap="round" />
</g>
</g>
</g>
</svg>